<svg width="34" height="34" viewBox="0 0 34 34" fill="none" xmlns="http://www.w3.org/2000/svg">
<rect width="34" height="34" rx="17" fill="#00AFAF"/>
<path fill-rule="evenodd" clip-rule="evenodd" d="M19.0282 19.7042V18.3519C19.3325 18.201 20.2027 17.1652 20.294 16.3558C20.5333 16.3376 20.9093 16.1178 21.0202 15.2503C21.0797 14.7844 20.8431 14.5227 20.6996 14.4403C20.6996 14.4403 21.0567 13.7621 21.0567 12.9432C21.0567 11.3015 20.4123 9.90048 19.0282 9.90048C19.0282 9.90048 18.5475 8.88623 16.9997 8.88623C14.1314 8.88623 12.9427 10.7261 12.9427 12.9432C12.9427 13.6897 13.2997 14.4403 13.2997 14.4403C13.1564 14.5227 12.9197 14.7851 12.9792 15.2503C13.0901 16.1178 13.4661 16.3376 13.7054 16.3558C13.7967 17.1652 14.667 18.201 14.9712 18.3519V19.7042C14.2951 21.7326 8.88574 20.3804 8.88574 25.1135H25.1136C25.1136 20.3804 19.7044 21.7326 19.0282 19.7042Z" fill="white"/>
</svg>
