<svg xmlns="http://www.w3.org/2000/svg" width="64pt" height="64pt" viewBox="0 0 64 64"><g fill="#fff"><path d="M56.875 6.129a2.992 2.992 0 012.984 2.984v45.774c0 1.64-1.34 2.984-2.984 2.984H7.125a2.992 2.992 0 01-2.984-2.984V9.113c0-1.64 1.34-2.984 2.984-2.984zM6.13 9.113v45.774c0 .547.45.992.996.992h49.75a.997.997 0 00.996-.992V9.113a.997.997 0 00-.996-.992H7.125a.997.997 0 00-.996.992zm38.805 19.903c0 2.664-.711 5.16-1.942 7.324-.02.035.153.25.246.344l4.563 4.562a3.784 3.784 0 011.113 2.695 3.782 3.782 0 01-1.113 2.692 3.804 3.804 0 01-5.387 0l-4.566-4.563c-.075-.078-.262-.222-.293-.203a14.782 14.782 0 01-7.543 2.074c-8.23 0-14.926-6.699-14.926-14.925 0-8.23 6.695-14.926 14.926-14.926 8.226 0 14.922 6.695 14.922 14.926zm-27.86 0c0 7.132 5.805 12.933 12.938 12.933 7.129 0 12.933-5.8 12.933-12.933s-5.804-12.938-12.933-12.938c-7.133 0-12.938 5.805-12.938 12.938zm23.88-.086c0 5.988-4.868 10.86-10.86 10.86-5.989 0-10.86-4.872-10.86-10.86 0-5.989 4.871-10.86 10.86-10.86 5.992 0 10.86 4.871 10.86 10.86zm-19.727 0c0 4.89 3.98 8.87 8.867 8.87 4.89 0 8.87-3.98 8.87-8.87 0-4.89-3.98-8.871-8.87-8.871-4.887 0-8.867 3.98-8.867 8.87zm15.359-2.762a.999.999 0 01-.527 1.305 1.005 1.005 0 01-1.309-.527 5.05 5.05 0 00-4.656-3.079.994.994 0 010-1.988 7.047 7.047 0 016.492 4.289zm2.695 14.523l4.54 4.536c.71.71 1.859.71 2.57 0a1.8 1.8 0 00.535-1.286c0-.488-.188-.94-.535-1.289l-4.563-4.562a15.143 15.143 0 01-2.547 2.601zM10.11 50.906v1.989a.998.998 0 01-.996.996.997.997 0 01-.992-.996v-1.989a.994.994 0 111.988 0zm4.977 0v1.989a1 1 0 01-.996.996 1 1 0 01-.996-.996v-1.989c0-.55.449-.996.996-.996.547 0 .996.446.996.996zm4.973 0v1.989a.997.997 0 01-.993.996.998.998 0 01-.996-.996v-1.989a.995.995 0 111.989 0zm4.976 0v1.989a.998.998 0 01-.996.996.997.997 0 01-.992-.996v-1.989a.994.994 0 111.988 0zm4.977 0v1.989a1 1 0 01-.996.996 1 1 0 01-.996-.996v-1.989c0-.55.449-.996.996-.996.547 0 .996.446.996.996zm4.972 0v1.989a.998.998 0 01-.996.996.997.997 0 01-.992-.996v-1.989a.994.994 0 111.988 0zm4.977 0v1.989a1 1 0 01-.996.996 1 1 0 01-.996-.996v-1.989c0-.55.449-.996.996-.996.547 0 .996.446.996.996zm4.973 0v1.989a.997.997 0 01-.993.996.998.998 0 01-.996-.996v-1.989a.995.995 0 111.989 0zm4.976 0v1.989a.998.998 0 01-.996.996.997.997 0 01-.992-.996v-1.989a.994.994 0 111.988 0zm4.977 0v1.989a1 1 0 01-.996.996 1 1 0 01-.996-.996v-1.989c0-.55.449-.996.996-.996.547 0 .996.446.996.996zm0 0" stroke-linejoin="round" stroke="#000" stroke-miterlimit="10" stroke-width=".37"/><path d="M7.125 6.129a2.992 2.992 0 00-2.984 2.984v45.774c0 1.64 1.34 2.984 2.984 2.984h49.75a2.992 2.992 0 002.984-2.984V9.113c0-1.64-1.34-2.984-2.984-2.984zm0 1.992h49.75c.547 0 .996.445.996.992v45.774c0 .547-.45.992-.996.992H7.125a.997.997 0 01-.996-.992V9.113c0-.547.45-.992.996-.992zm22.887 5.969c-8.23 0-14.926 6.695-14.926 14.926 0 8.226 6.695 14.925 14.926 14.925 2.754 0 5.328-.765 7.543-2.074.03-.02.218.125.293.203l4.566 4.563a3.804 3.804 0 005.387 0 3.782 3.782 0 001.113-2.692c0-1.02-.394-1.976-1.113-2.695l-4.563-4.562c-.093-.094-.265-.309-.246-.344a14.769 14.769 0 001.942-7.324c0-8.23-6.696-14.926-14.922-14.926zm0 1.988c7.129 0 12.933 5.805 12.933 12.938 0 7.132-5.804 12.933-12.933 12.933-7.133 0-12.938-5.8-12.938-12.933s5.805-12.938 12.938-12.938zm.082 1.992c-5.989 0-10.86 4.871-10.86 10.86 0 5.988 4.871 10.86 10.86 10.86 5.992 0 10.86-4.872 10.86-10.86 0-5.989-4.868-10.86-10.86-10.86zm0 1.989c4.89 0 8.87 3.98 8.87 8.87 0 4.891-3.98 8.872-8.87 8.872-4.887 0-8.867-3.98-8.867-8.871 0-4.89 3.98-8.871 8.867-8.871zm0 1.82a.994.994 0 000 1.988 5.047 5.047 0 014.656 3.082 1.007 1.007 0 001.309.524.999.999 0 00.527-1.305 7.047 7.047 0 00-6.492-4.29zm11.734 16.21l4.563 4.563c.347.348.535.801.535 1.29a1.8 1.8 0 01-.535 1.285c-.711.71-1.86.71-2.57 0l-4.54-4.536a15.143 15.143 0 002.547-2.601zM9.113 49.91a.994.994 0 00-.992.996v1.989c0 .546.445.996.992.996.551 0 .996-.45.996-.996v-1.989a.995.995 0 00-.996-.996zm4.977 0a.998.998 0 00-.996.996v1.989a1 1 0 00.996.996 1 1 0 00.996-.996v-1.989c0-.55-.45-.996-.996-.996zm4.976 0a.995.995 0 00-.996.996v1.989c0 .546.446.996.996.996.547 0 .993-.45.993-.996v-1.989a.994.994 0 00-.993-.996zm4.973 0a.994.994 0 00-.992.996v1.989c0 .546.445.996.992.996.55 0 .996-.45.996-.996v-1.989a.995.995 0 00-.996-.996zm4.977 0a.998.998 0 00-.996.996v1.989a1 1 0 00.996.996 1 1 0 00.996-.996v-1.989c0-.55-.45-.996-.996-.996zm4.972 0a.994.994 0 00-.992.996v1.989c0 .546.445.996.992.996.551 0 .996-.45.996-.996v-1.989a.995.995 0 00-.996-.996zm4.977 0a.998.998 0 00-.996.996v1.989a1 1 0 00.996.996 1 1 0 00.996-.996v-1.989c0-.55-.45-.996-.996-.996zm4.976 0a.995.995 0 00-.996.996v1.989c0 .546.446.996.996.996.547 0 .993-.45.993-.996v-1.989a.994.994 0 00-.993-.996zm4.973 0a.994.994 0 00-.992.996v1.989c0 .546.445.996.992.996.55 0 .996-.45.996-.996v-1.989a.995.995 0 00-.996-.996zm4.977 0a.998.998 0 00-.996.996v1.989a1 1 0 00.996.996 1 1 0 00.996-.996v-1.989c0-.55-.45-.996-.996-.996zm0 0"/></g></svg>