<svg width="30" height="30" viewBox="0 0 30 30" fill="none" xmlns="http://www.w3.org/2000/svg">
<g clip-path="url(#clip0)">
<path d="M0.492541 14.9933H0.510041C0.779659 14.9935 1.00084 14.7799 1.01003 14.5104C1.28052 6.78328 7.76381 0.738547 15.4909 1.00898C18.4631 1.11304 21.3249 2.16083 23.6615 4.0006H21.0006C20.7245 4.0006 20.5006 4.22447 20.5006 4.50059C20.5006 4.77671 20.7245 5.00058 21.0006 5.00058H25.0005H25.0075C25.0466 4.99739 25.0852 4.9897 25.1225 4.97758C25.148 4.97389 25.1732 4.96839 25.198 4.96108C25.212 4.95508 25.2225 4.94258 25.236 4.93508C25.2809 4.91314 25.322 4.88427 25.358 4.84958L25.363 4.84608C25.3757 4.8287 25.3872 4.81052 25.3975 4.79158C25.4237 4.75971 25.4457 4.72458 25.463 4.68708C25.4767 4.64721 25.4852 4.60571 25.488 4.56359C25.4937 4.54296 25.4979 4.5219 25.5005 4.50059V0.500678C25.5005 0.224559 25.2766 0.000689298 25.0005 0.000689298C24.7244 0.000689298 24.5005 0.224559 24.5005 0.500678V3.39661C18.0943 -1.85214 8.64604 -0.913915 3.39729 5.49231C1.31402 8.03501 0.123924 11.1917 0.010052 14.4769C0.000802249 14.7527 0.216735 14.9838 0.492541 14.9933Z" fill="white"/>
<path d="M4.54007 24.3048C4.35657 24.0976 4.03996 24.0785 3.83284 24.262C3.62572 24.4455 3.60659 24.7621 3.79009 24.9692C4.13427 25.3555 4.49788 25.724 4.87956 26.0732C5.08712 26.2554 5.40299 26.2348 5.58517 26.0273C5.76217 25.8256 5.74842 25.5202 5.55405 25.3352C5.19868 25.0093 4.86025 24.6654 4.54007 24.3048Z" fill="white"/>
<path d="M10.5069 28.2635C10.0498 28.1088 9.60109 27.9304 9.16247 27.7291C8.91504 27.6065 8.61504 27.7077 8.49249 27.9552C8.36993 28.2026 8.47117 28.5026 8.7186 28.6252C8.7271 28.6293 8.73573 28.6333 8.74448 28.637C9.21472 28.8535 9.69608 29.0451 10.1864 29.211C10.4481 29.2995 10.7319 29.1591 10.8204 28.8975C10.909 28.6359 10.7686 28.352 10.5069 28.2635Z" fill="white"/>
<path d="M7.88095 27.0571V27.0566C7.46539 26.8105 7.06259 26.5435 6.67397 26.2567C6.45717 26.0856 6.1428 26.1227 5.97174 26.3395C5.80068 26.5563 5.8378 26.8707 6.05461 27.0418C6.06274 27.0481 6.07099 27.0543 6.07949 27.0602C6.4951 27.3679 6.92615 27.6541 7.37096 27.9177C7.60858 28.0585 7.91538 27.9801 8.05619 27.7424C8.19706 27.5047 8.11857 27.1979 7.88095 27.0571Z" fill="white"/>
<path d="M3.63445 23.1762C3.35258 22.7843 3.09096 22.3783 2.85046 21.9597C2.7124 21.7201 2.40629 21.6379 2.16673 21.776C1.92717 21.914 1.84493 22.2201 1.98298 22.4597C2.2406 22.9072 2.52097 23.3413 2.82296 23.7602C2.98877 23.981 3.3022 24.0255 3.52301 23.8597C3.73751 23.6987 3.78669 23.397 3.63445 23.1762Z" fill="white"/>
<path d="M2.23916 20.8755C2.23916 20.8058 2.22453 20.7369 2.19634 20.6732L2.19534 20.6697C1.99966 20.229 1.82691 19.7783 1.67786 19.3197C1.60536 19.0533 1.33055 18.8961 1.06412 18.9686C0.797688 19.0411 0.640442 19.3159 0.713002 19.5824C0.717252 19.5979 0.72219 19.6132 0.727877 19.6282C0.887436 20.1208 1.07237 20.6048 1.28186 21.0782C1.36205 21.2592 1.54142 21.3758 1.73935 21.3757C2.01547 21.3756 2.23922 21.1516 2.23916 20.8755Z" fill="white"/>
<path d="M0.919614 18.5133C0.919676 18.5133 0.919801 18.5132 0.919864 18.5132C1.18967 18.4557 1.36192 18.1906 1.30485 17.9207C1.20523 17.4484 1.1298 16.9713 1.07886 16.4913C1.04974 16.2165 0.803366 16.0174 0.528623 16.0465C0.253879 16.0757 0.0547585 16.322 0.0838829 16.5968C0.138632 17.1109 0.219692 17.6219 0.326877 18.1277C0.384126 18.3979 0.649495 18.5705 0.919614 18.5133Z" fill="white"/>
<path d="M29.1998 18.0029C29.1996 18.0029 29.1994 18.0029 29.1992 18.0028C28.9313 17.9364 28.6602 18.0998 28.5938 18.3678C28.4779 18.8365 28.3379 19.299 28.1743 19.7533C28.0807 20.0131 28.2154 20.2996 28.4753 20.3933C28.7351 20.4869 29.0216 20.3521 29.1153 20.0923C29.2907 19.6057 29.4409 19.1104 29.5652 18.6083C29.6315 18.3403 29.4679 18.0693 29.1998 18.0029Z" fill="white"/>
<path d="M13.3254 28.9C12.8462 28.8429 12.3703 28.7612 11.8995 28.655C11.6301 28.5941 11.3623 28.7631 11.3015 29.0325C11.2406 29.3018 11.4096 29.5696 11.679 29.6305C12.1836 29.7442 12.6938 29.8318 13.2074 29.8929C13.2274 29.8954 13.2474 29.8965 13.2674 29.8964C13.5435 29.8959 13.7669 29.6715 13.7664 29.3954C13.7659 29.1425 13.5766 28.9299 13.3254 28.9Z" fill="white"/>
<path d="M28.2779 20.8548C28.0293 20.7348 27.7306 20.8388 27.6103 21.0873C27.4001 21.5219 27.1675 21.9453 26.9133 22.3557C26.772 22.593 26.8497 22.8999 27.0869 23.0412C27.3184 23.1791 27.6176 23.1088 27.7633 22.8822C28.0354 22.4423 28.2846 21.9885 28.5098 21.5228C28.6302 21.2743 28.5264 20.9752 28.2779 20.8548Z" fill="white"/>
<path d="M26.8013 23.4551C26.5852 23.2832 26.2707 23.3191 26.0988 23.5353C26.0958 23.539 26.0929 23.5429 26.09 23.5467V23.5457C25.795 23.9283 25.4804 24.2955 25.1475 24.6456C24.9571 24.8458 24.9651 25.1625 25.1653 25.3529C25.3654 25.5433 25.6821 25.5353 25.8725 25.3351C26.2285 24.96 26.5653 24.567 26.8815 24.1577C27.0533 23.9415 27.0175 23.627 26.8013 23.4551Z" fill="white"/>
<path d="M29.5091 15.0238C29.2374 15.01 29.006 15.219 28.9921 15.4906C28.9919 15.4956 28.9917 15.5008 28.9916 15.5058C28.9746 15.9883 28.9327 16.4696 28.8661 16.9478C28.8284 17.221 29.019 17.473 29.2921 17.5113C29.3153 17.5147 29.3386 17.5164 29.3621 17.5163C29.6113 17.5159 29.8222 17.3321 29.8566 17.0853C29.9278 16.5731 29.9726 16.0576 29.9911 15.5408C30.0006 15.265 29.7849 15.0336 29.5091 15.0238Z" fill="white"/>
<path d="M24.1006 25.6401V25.6416C23.7326 25.9557 23.3488 26.2507 22.9506 26.5255C22.7229 26.6829 22.666 26.9951 22.8233 27.2228C22.9807 27.4505 23.2929 27.5074 23.5206 27.35C23.9464 27.0543 24.3569 26.7373 24.7505 26.4C24.9604 26.2205 24.985 25.9049 24.8055 25.6951C24.6261 25.4852 24.3104 25.4606 24.1006 25.6401Z" fill="white"/>
<path d="M19.0557 28.4042C18.5937 28.5434 18.1248 28.6586 17.6508 28.7492C17.3796 28.8014 17.202 29.0634 17.2542 29.3346C17.2994 29.5697 17.5049 29.7397 17.7443 29.7402C17.776 29.7403 17.8076 29.7374 17.8388 29.7317C18.3469 29.6345 18.8496 29.5109 19.3447 29.3612C19.607 29.2747 19.7495 28.9921 19.6631 28.7298C19.5797 28.4768 19.3126 28.3336 19.0557 28.4042Z" fill="white"/>
<path d="M16.2432 28.9457C16.234 28.9462 16.2249 28.947 16.2157 28.948L16.2182 28.95C15.8182 28.984 15.4088 29 15.0008 29H14.7723C14.4996 29.0039 14.2767 29.2186 14.2628 29.491C14.2578 29.7671 14.4775 29.995 14.7536 30C14.7536 30 14.7537 30 14.7538 30H15.0008C15.4378 30 15.8757 29.9805 16.3007 29.944C16.5764 29.9281 16.787 29.6917 16.7711 29.416C16.7552 29.1404 16.5188 28.9297 16.2432 28.9457Z" fill="white"/>
<path d="M21.7192 27.2845H21.7197C21.2964 27.5163 20.8615 27.7262 20.4167 27.9135C20.1608 28.0173 20.0375 28.3088 20.1413 28.5647C20.245 28.8206 20.5366 28.9439 20.7925 28.8401C20.7962 28.8386 20.7999 28.8371 20.8036 28.8355C21.2802 28.6349 21.7462 28.41 22.1996 28.1615C22.4418 28.0288 22.5305 27.7249 22.3978 27.4827C22.2653 27.2406 21.9613 27.1518 21.7192 27.2845Z" fill="white"/>
<path d="M14.9998 4.50073C9.20089 4.50073 4.5 9.20162 4.5 15.0005C4.5 20.7994 9.20089 25.5003 14.9998 25.5003C20.7986 25.5003 25.4995 20.7994 25.4995 15.0005C25.493 9.20437 20.7959 4.50736 14.9998 4.50073ZM22.9996 15.5005H24.474C24.2143 20.3452 20.3444 24.215 15.4997 24.4748V23.0003C15.4997 22.7242 15.2759 22.5003 14.9998 22.5003C14.7236 22.5003 14.4998 22.7242 14.4998 23.0003V24.4748C9.65507 24.215 5.78522 20.3452 5.52548 15.5005H6.99994C7.27606 15.5005 7.49993 15.2766 7.49993 15.0005C7.49993 14.7244 7.27606 14.5005 6.99994 14.5005H5.52548C5.78522 9.6558 9.65507 5.78595 14.4998 5.52621V7.00068C14.4998 7.27679 14.7236 7.50066 14.9998 7.50066C15.2759 7.50066 15.4997 7.27679 15.4997 7.00068V5.52621C20.3444 5.78595 24.2143 9.6558 24.474 14.5005H22.9996C22.7235 14.5005 22.4996 14.7244 22.4996 15.0005C22.4996 15.2766 22.7235 15.5005 22.9996 15.5005Z" fill="white"/>
<path d="M15.4999 13.5924V9.00048C15.4999 8.72436 15.276 8.50049 14.9999 8.50049C14.7238 8.50049 14.4999 8.72436 14.4999 9.00048V13.5924C14.0765 13.7436 13.7432 14.0769 13.5919 14.5004H11C10.7239 14.5004 10.5 14.7242 10.5 15.0003C10.5 15.2765 10.7239 15.5003 11 15.5003H13.5919C13.8659 16.2801 14.7202 16.6901 15.4999 16.4161C16.2796 16.1421 16.6896 15.2878 16.4156 14.5081C16.2651 14.0797 15.9283 13.7429 15.4999 13.5924ZM14.9999 15.5003C14.7238 15.5003 14.4999 15.2765 14.4999 15.0003C14.4999 14.7242 14.7238 14.5004 14.9999 14.5004C15.276 14.5004 15.4999 14.7242 15.4999 15.0003C15.4999 15.2765 15.2761 15.5003 14.9999 15.5003Z" fill="white"/>
</g>
<defs>
<clipPath id="clip0">
<rect width="30" height="30" fill="white"/>
</clipPath>
</defs>
</svg>
